<?xml version="1.0" standalone="no"?>
<!DOCTYPE svg PUBLIC "-//W3C//DTD SVG 20010904//EN"
 "http://www.w3.org/TR/2001/REC-SVG-20010904/DTD/svg10.dtd">
<svg version="1.0" xmlns="http://www.w3.org/2000/svg"
 width="512.000000pt" height="512.000000pt" viewBox="0 0 512.000000 512.000000"
 preserveAspectRatio="xMidYMid meet">
<metadata>
Created by potrace 1.11, written by Peter Selinger 2001-2013
</metadata>
<g transform="translate(0.000000,512.000000) scale(0.100000,-0.100000)"
fill="#000000" stroke="none">
<path d="M2511 5088 c21 -74 163 -241 274 -323 22 -17 42 -33 45 -36 8 -9 145
-101 285 -189 672 -427 1034 -908 1027 -1363 -1 -82 -8 -120 -39 -212 -52
-159 -128 -271 -243 -360 -174 -134 -367 -157 -495 -59 -41 31 -43 40 -11 65
40 31 122 140 154 204 30 60 55 136 67 208 l6 39 -43 -27 c-24 -14 -77 -42
-118 -61 -41 -20 -82 -39 -91 -44 -26 -13 -29 -2 -12 43 8 23 16 49 18 57 1 8
8 33 13 55 15 58 23 137 23 245 0 85 -8 191 -15 198 -2 1 -24 -24 -49 -57 -71
-90 -187 -183 -329 -265 l-47 -28 15 53 c46 153 53 299 20 413 -19 66 -31 77
-40 35 -15 -77 -114 -229 -199 -306 -112 -101 -279 -206 -562 -353 -314 -162
-444 -270 -518 -432 -22 -46 -36 -119 -30 -155 16 -105 31 -140 48 -113 11 17
97 57 153 70 121 28 272 -18 354 -108 64 -71 83 -125 83 -233 0 -94 -1 -98
-44 -183 -96 -189 -284 -288 -531 -281 -115 4 -190 23 -295 74 -79 39 -196
129 -264 204 -140 153 -261 379 -301 559 -25 115 -31 295 -13 399 7 40 14 85
17 99 16 98 88 306 133 389 72 131 209 294 379 451 33 30 111 102 174 160 226
210 295 297 334 429 9 30 16 59 16 63 0 5 -33 -18 -74 -51 -74 -60 -251 -183
-401 -276 -553 -345 -857 -606 -1033 -886 -48 -75 -122 -229 -122 -252 0 -9
-4 -18 -9 -21 -17 -11 -76 -255 -89 -371 -4 -33 -7 -159 -6 -280 1 -233 10
-315 59 -507 190 -743 800 -1377 1574 -1638 274 -92 492 -128 781 -128 522 0
1014 156 1442 459 53 38 102 74 110 82 7 7 27 23 43 35 60 46 239 229 315 322
83 103 178 241 229 333 40 73 111 214 111 222 0 3 9 24 20 48 46 101 127 367
144 477 36 229 40 269 40 440 0 102 -3 217 -7 255 -4 39 -10 90 -12 115 -17
150 -77 393 -132 534 -166 424 -441 751 -873 1040 -226 152 -397 240 -890 461
-307 138 -448 208 -523 261 -26 19 -49 34 -51 34 -3 0 0 -14 5 -32z"/>
</g>
</svg>
